<mxfile host="app.diagrams.net" modified="2024-03-26T11:04:04.364Z" agent="Mozilla/5.0 (Windows NT 10.0; Win64; x64) AppleWebKit/537.36 (KHTML, like Gecko) Chrome/123.0.0.0 Safari/537.36" etag="kOVWdxfJ8aamr3z_t7l0" version="24.1.0" type="device">
  <diagram name="Страница — 1" id="k29U0HpOC3g_yq_AR1f5">
    <mxGraphModel dx="1050" dy="565" grid="1" gridSize="10" guides="1" tooltips="1" connect="1" arrows="1" fold="1" page="1" pageScale="1" pageWidth="1000" pageHeight="700" math="0" shadow="0">
      <root>
        <mxCell id="0" />
        <mxCell id="1" parent="0" />
        <mxCell id="V3qvELy1iN_XP-I4YdKI-7" value="&lt;font style=&quot;font-size: 11px;&quot;&gt;Альтернатива&lt;/font&gt;" style="shape=umlFrame;whiteSpace=wrap;html=1;pointerEvents=0;width=80;height=30;" parent="1" vertex="1">
          <mxGeometry x="40" y="280" width="790" height="200" as="geometry" />
        </mxCell>
        <mxCell id="V3qvELy1iN_XP-I4YdKI-19" value="" style="line;strokeWidth=1;fillColor=none;align=left;verticalAlign=middle;spacingTop=-1;spacingLeft=3;spacingRight=3;rotatable=0;labelPosition=right;points=[];portConstraint=eastwest;strokeColor=inherit;dashed=1;dashPattern=12 12;" parent="1" vertex="1">
          <mxGeometry x="40" y="376" width="790" height="8" as="geometry" />
        </mxCell>
        <mxCell id="V3qvELy1iN_XP-I4YdKI-29" value="&lt;font style=&quot;font-size: 10px;&quot;&gt;[Если&lt;/font&gt;&lt;div style=&quot;font-size: 10px;&quot;&gt;&lt;font style=&quot;font-size: 10px;&quot;&gt;действителен]&lt;/font&gt;&lt;/div&gt;" style="text;html=1;align=center;verticalAlign=middle;resizable=0;points=[];autosize=1;strokeColor=none;fillColor=none;" parent="1" vertex="1">
          <mxGeometry x="30" y="305" width="90" height="40" as="geometry" />
        </mxCell>
        <mxCell id="V3qvELy1iN_XP-I4YdKI-30" value="[Иначе]" style="text;html=1;align=center;verticalAlign=middle;resizable=0;points=[];autosize=1;strokeColor=none;fillColor=none;" parent="1" vertex="1">
          <mxGeometry x="45" y="384" width="60" height="30" as="geometry" />
        </mxCell>
        <mxCell id="V3qvELy1iN_XP-I4YdKI-31" value="Помещение багажа на ленту" style="html=1;verticalAlign=bottom;endArrow=block;curved=0;rounded=0;" parent="1" edge="1">
          <mxGeometry width="80" relative="1" as="geometry">
            <mxPoint x="150.00043478260875" y="180" as="sourcePoint" />
            <mxPoint x="324.87" y="180" as="targetPoint" />
          </mxGeometry>
        </mxCell>
        <mxCell id="V3qvELy1iN_XP-I4YdKI-8" value="" style="shape=umlDestroy;whiteSpace=wrap;html=1;strokeWidth=3;targetShapes=umlLifeline;" parent="1" vertex="1">
          <mxGeometry x="135" y="490" width="30" height="30" as="geometry" />
        </mxCell>
        <mxCell id="V3qvELy1iN_XP-I4YdKI-20" value="" style="group" parent="1" vertex="1" connectable="0">
          <mxGeometry x="130" y="40" width="40" height="460" as="geometry" />
        </mxCell>
        <mxCell id="V3qvELy1iN_XP-I4YdKI-13" value="" style="shape=umlLifeline;perimeter=lifelinePerimeter;whiteSpace=wrap;html=1;container=1;dropTarget=0;collapsible=0;recursiveResize=0;outlineConnect=0;portConstraint=eastwest;newEdgeStyle={&quot;curved&quot;:0,&quot;rounded&quot;:0};participant=umlActor;size=80;" parent="V3qvELy1iN_XP-I4YdKI-20" vertex="1">
          <mxGeometry width="40" height="460.00000000000006" as="geometry" />
        </mxCell>
        <mxCell id="V3qvELy1iN_XP-I4YdKI-1" value="Пассажир" style="shape=umlActor;verticalLabelPosition=bottom;verticalAlign=top;html=1;" parent="V3qvELy1iN_XP-I4YdKI-20" vertex="1">
          <mxGeometry width="40" height="80" as="geometry" />
        </mxCell>
        <mxCell id="V3qvELy1iN_XP-I4YdKI-14" value="Сканирование&lt;div&gt;Багажа&lt;/div&gt;" style="shape=umlLifeline;perimeter=lifelinePerimeter;whiteSpace=wrap;html=1;container=1;dropTarget=0;collapsible=0;recursiveResize=0;outlineConnect=0;portConstraint=eastwest;newEdgeStyle={&quot;curved&quot;:0,&quot;rounded&quot;:0};size=80;" parent="1" vertex="1">
          <mxGeometry x="270" y="40" width="110" height="460" as="geometry" />
        </mxCell>
        <mxCell id="V3qvELy1iN_XP-I4YdKI-22" value="" style="shape=umlDestroy;whiteSpace=wrap;html=1;strokeWidth=3;targetShapes=umlLifeline;" parent="1" vertex="1">
          <mxGeometry x="310" y="490" width="30" height="30" as="geometry" />
        </mxCell>
        <mxCell id="V3qvELy1iN_XP-I4YdKI-34" value="" style="group" parent="1" vertex="1" connectable="0">
          <mxGeometry x="720" y="40" width="100" height="480" as="geometry" />
        </mxCell>
        <mxCell id="V3qvELy1iN_XP-I4YdKI-17" value="Системная&lt;div&gt;Панель&lt;/div&gt;" style="shape=umlLifeline;perimeter=lifelinePerimeter;whiteSpace=wrap;html=1;container=1;dropTarget=0;collapsible=0;recursiveResize=0;outlineConnect=0;portConstraint=eastwest;newEdgeStyle={&quot;curved&quot;:0,&quot;rounded&quot;:0};size=80;" parent="V3qvELy1iN_XP-I4YdKI-34" vertex="1">
          <mxGeometry width="100" height="460" as="geometry" />
        </mxCell>
        <mxCell id="V3qvELy1iN_XP-I4YdKI-23" value="" style="shape=umlDestroy;whiteSpace=wrap;html=1;strokeWidth=3;targetShapes=umlLifeline;" parent="V3qvELy1iN_XP-I4YdKI-34" vertex="1">
          <mxGeometry x="35" y="450" width="30" height="30" as="geometry" />
        </mxCell>
        <mxCell id="V3qvELy1iN_XP-I4YdKI-38" value="&lt;div&gt;Проверка содержимого багажа&lt;/div&gt;&lt;div&gt;на наличие опасных предметов&lt;/div&gt;" style="html=1;verticalAlign=bottom;endArrow=block;curved=0;rounded=0;" parent="1" source="V3qvELy1iN_XP-I4YdKI-14" edge="1">
          <mxGeometry width="80" relative="1" as="geometry">
            <mxPoint x="322.5604347826087" y="230" as="sourcePoint" />
            <mxPoint x="547.43" y="230" as="targetPoint" />
          </mxGeometry>
        </mxCell>
        <mxCell id="V3qvELy1iN_XP-I4YdKI-39" value="Предоставление доступа" style="html=1;verticalAlign=bottom;endArrow=block;curved=0;rounded=0;" parent="1" edge="1">
          <mxGeometry width="80" relative="1" as="geometry">
            <mxPoint x="549.6304347826087" y="320" as="sourcePoint" />
            <mxPoint x="769.5000000000002" y="320" as="targetPoint" />
          </mxGeometry>
        </mxCell>
        <mxCell id="V3qvELy1iN_XP-I4YdKI-40" value="" style="group" parent="1" vertex="1" connectable="0">
          <mxGeometry x="500" y="40" width="100" height="480" as="geometry" />
        </mxCell>
        <mxCell id="V3qvELy1iN_XP-I4YdKI-16" value="Нейронная&lt;div&gt;Сеть&lt;/div&gt;" style="shape=umlLifeline;perimeter=lifelinePerimeter;whiteSpace=wrap;html=1;container=1;dropTarget=0;collapsible=0;recursiveResize=0;outlineConnect=0;portConstraint=eastwest;newEdgeStyle={&quot;curved&quot;:0,&quot;rounded&quot;:0};size=80;" parent="V3qvELy1iN_XP-I4YdKI-40" vertex="1">
          <mxGeometry width="100" height="460" as="geometry" />
        </mxCell>
        <mxCell id="V3qvELy1iN_XP-I4YdKI-25" value="" style="shape=umlDestroy;whiteSpace=wrap;html=1;strokeWidth=3;targetShapes=umlLifeline;" parent="V3qvELy1iN_XP-I4YdKI-40" vertex="1">
          <mxGeometry x="35" y="450" width="30" height="30" as="geometry" />
        </mxCell>
        <mxCell id="V3qvELy1iN_XP-I4YdKI-41" value="Опасный объект найден" style="html=1;verticalAlign=bottom;endArrow=block;curved=0;rounded=0;dashed=1;dashPattern=12 12;" parent="V3qvELy1iN_XP-I4YdKI-40" edge="1">
          <mxGeometry width="80" relative="1" as="geometry">
            <mxPoint x="49.5" y="370" as="sourcePoint" />
            <mxPoint x="-175.36956521739125" y="370" as="targetPoint" />
          </mxGeometry>
        </mxCell>
        <mxCell id="V3qvELy1iN_XP-I4YdKI-42" value="&lt;div&gt;Пожалуйста, пройдите&lt;/div&gt;&lt;div&gt;дополнительную&lt;/div&gt;&lt;div&gt;проверку оператора&lt;/div&gt;" style="html=1;verticalAlign=bottom;endArrow=block;curved=0;rounded=0;" parent="1" edge="1">
          <mxGeometry width="80" relative="1" as="geometry">
            <mxPoint x="324.5" y="440" as="sourcePoint" />
            <mxPoint x="149.63043478260875" y="440" as="targetPoint" />
          </mxGeometry>
        </mxCell>
      </root>
    </mxGraphModel>
  </diagram>
</mxfile>
